# Blender v2.79 (sub 0) OBJ File: ''
# www.blender.org
mtllib physcolor.mtl
o color_Circle.001
v -0.866025 -1.250000 -3.975922
v -0.866025 -2.250000 -3.975922
v 0.000000 -2.750000 -3.975922
v 0.866025 -2.250000 -3.975922
v 0.866025 -1.250000 -3.975922
v 0.000000 -0.750000 -3.975922
v 0.086603 -0.800000 -3.975922
v 0.779423 -1.200000 -3.975922
v 0.086603 -0.800000 -0.975922
v 0.779423 -1.200000 -0.975922
v -0.779423 -1.200000 -3.975922
v -0.086602 -0.800000 -3.975922
v -0.779423 -1.200000 -0.975922
v -0.086602 -0.800000 -0.975922
v -0.866025 -2.150000 -3.975922
v -0.866025 -1.350000 -3.975922
v -0.866025 -2.150000 -0.975922
v -0.866025 -1.350000 -0.975922
v -0.086602 -2.700000 -3.975922
v -0.779423 -2.300000 -3.975922
v -0.086602 -2.700000 -0.975922
v -0.779423 -2.300000 -0.975922
v 0.779423 -2.300000 -3.975922
v 0.086603 -2.700000 -3.975922
v 0.779423 -2.300000 -0.975922
v 0.086603 -2.700000 -0.975922
v 0.866025 -1.350000 -3.975922
v 0.866025 -2.150000 -3.975922
v 0.866025 -1.350000 -0.975922
v 0.866026 -2.150000 -0.975922
v 0.779423 -1.200000 -2.975922
v 0.779423 -1.200000 -1.975922
v 0.086603 -0.800000 -2.975922
v 0.086603 -0.800000 -1.975922
v -0.086602 -0.800000 -2.975922
v -0.086602 -0.800000 -1.975922
v -0.779423 -1.200000 -2.975922
v -0.779423 -1.200000 -1.975922
v -0.866025 -1.350000 -2.975922
v -0.866025 -1.350000 -1.975922
v -0.866025 -2.150000 -2.975922
v -0.866025 -2.150000 -1.975922
v -0.779423 -2.300000 -2.975922
v -0.779423 -2.300000 -1.975922
v -0.086602 -2.700000 -2.975922
v -0.086602 -2.700000 -1.975922
v 0.086603 -2.700000 -2.975922
v 0.086603 -2.700000 -1.975922
v 0.779423 -2.300000 -2.975922
v 0.779423 -2.300000 -1.975922
v 0.866025 -2.150000 -2.975922
v 0.866026 -2.150000 -1.975922
v 0.866025 -1.350000 -2.975922
v 0.866025 -1.350000 -1.975922
v -0.000000 0.731434 0.024078
v -0.000000 0.552206 -0.055128
v -0.000000 0.731434 0.024078
v -0.000000 0.552206 -0.055128
vt 0.382178 0.375000
vt 0.363069 0.387500
vt 0.210198 0.487500
vt 0.191089 0.500000
vt 0.171980 0.487500
vt 0.019109 0.387500
vt 0.000000 0.375000
vt 0.000000 0.350000
vt 0.000000 0.150000
vt 0.000000 0.125000
vt 0.019109 0.112500
vt 0.171980 0.012500
vt 0.191089 0.000000
vt 0.210198 0.012500
vt 0.363069 0.112500
vt 0.382178 0.125000
vt 0.382178 0.150000
vt 0.382178 0.350000
vt 0.088260 0.750000
vt 0.176520 0.750000
vt 0.176520 1.000000
vt 0.088260 1.000000
vt 0.558699 0.500000
vt 0.735219 0.500000
vt 0.735219 0.750000
vt 0.558699 0.750000
vt 0.911740 0.500000
vt 1.000000 0.500000
vt 1.000000 0.750000
vt 0.911740 0.750000
vt 0.558699 0.250000
vt 0.382178 0.250000
vt 0.382178 0.000000
vt 0.558698 0.000000
vt 0.176520 0.500000
vt 0.264781 0.500000
vt 0.264781 0.750000
vt 0.176520 0.750000
vt 0.735219 0.500000
vt 0.911740 0.500000
vt 0.911740 0.750000
vt 0.735219 0.750000
vt 0.735219 0.000000
vt 0.911740 0.000000
vt 0.911740 0.250000
vt 0.735219 0.250000
vt 0.000000 0.500000
vt 0.088260 0.500000
vt 0.088260 0.750000
vt 0.000000 0.750000
vt 0.088260 1.000000
vt 0.000000 1.000000
vt 0.558699 0.750000
vt 0.382178 0.750000
vt 0.382178 0.500000
vt 0.558699 0.500000
vt 0.911740 0.000000
vt 1.000000 0.000000
vt 1.000000 0.250000
vt 0.911740 0.250000
vt 0.558699 0.000000
vt 0.735219 0.000000
vt 0.735219 0.250000
vt 0.558699 0.250000
vt 0.264781 0.500000
vt 0.353041 0.500000
vt 0.353041 0.750000
vt 0.264781 0.750000
vt 0.088260 0.500000
vt 0.176520 0.500000
vn -0.0000 0.0000 -1.0000
vn 0.5000 0.8660 0.0000
vn -0.5000 0.8660 0.0000
vn -1.0000 -0.0000 0.0000
vn -0.5000 -0.8660 0.0000
vn 0.5000 -0.8660 0.0000
vn 1.0000 0.0000 -0.0000
usemtl Material.001
s off
f 2/1/1 15/2/1 16/3/1 1/4/1 11/5/1 12/6/1 6/7/1 7/8/1 8/9/1 5/10/1 27/11/1 28/12/1 4/13/1 23/14/1 24/15/1 3/16/1 19/17/1 20/18/1
f 32/19/2 34/20/2 9/21/2 10/22/2
f 36/23/3 38/24/3 13/25/3 14/26/3
f 40/27/4 42/28/4 17/29/4 18/30/4
f 44/31/5 46/32/5 21/33/5 22/34/5
f 48/35/6 50/36/6 25/37/6 26/38/6
f 52/39/7 54/40/7 29/41/7 30/42/7
f 28/43/7 27/44/7 53/45/7 51/46/7
f 51/46/7 53/45/7 54/40/7 52/39/7
f 24/47/6 23/48/6 49/49/6 47/50/6
f 47/50/6 49/49/6 50/51/6 48/52/6
f 20/53/5 19/54/5 45/55/5 43/56/5
f 43/56/5 45/55/5 46/32/5 44/31/5
f 16/57/4 15/58/4 41/59/4 39/60/4
f 39/60/4 41/59/4 42/28/4 40/27/4
f 12/61/3 11/62/3 37/63/3 35/64/3
f 35/64/3 37/63/3 38/24/3 36/23/3
f 8/65/2 7/66/2 33/67/2 31/68/2
f 31/69/2 33/70/2 34/20/2 32/19/2
l 58 56
l 55 57
